# xmcd
#
# Track frame offsets:
# 150
# 21572
# 38447
# 56980
# 74952
# 92695
# 112997
# 133105
# 152740
# 174242
# 190935
#
# Disc length: 2829 seconds
#
#
# Revision: 0
# Processed by: cddbd v1.5.2PL0 Copyright (c) Steve Scherf et al.
# Submitted via: FreeRIP 2.52 
#
DISCID=9a0b0b0b
DTITLE=Sass Jordan - Racine
DYEAR=1992
DGENRE=
TTITLE0=Make You A Believer
TTITLE1=If You're Gonna Love Me
TTITLE2=You Don't Have To Remind Me
TTITLE3=Who Do You Think You Are
TTITLE4=Windin' Me Up
TTITLE5=I Want To Believe
TTITLE6=Goin' Back Again
TTITLE7=Do What Ya Want
TTITLE8=Cry Baby
TTITLE9=Where There's A Will
TTITLE10=Time Flies
EXTD=
EXTT0=
EXTT1=
EXTT2=
EXTT3=
EXTT4=
EXTT5=
EXTT6=
EXTT7=
EXTT8=
EXTT9=
EXTT10=
PLAYORDER=
